# MagicaVoxel @ Ephtracy

# group
g palancaholder

# material
mtllib palancaholder.mtl
usemtl palette

# normals
vn -1 0 0
vn 1 0 0
vn 0 0 1
vn 0 0 -1
vn 0 -1 0
vn 0 1 0

# texcoords
vt 0.0449219 0.5
vt 0.138672 0.5
vt 0.658203 0.5

# verts
v -8 0 8
v -8 0 -8
v -8 15 3
v -8 15 -4
v -8 16 8
v -8 16 3
v -8 16 -4
v -8 16 -8
v -4 14 5
v -4 14 -5
v -4 15 5
v -4 15 -5
v -2 9 8
v -2 9 7
v -2 12 8
v -2 12 7
v -2 14 3
v -2 14 -3
v -2 15 3
v -2 15 -3
v 1 14 2
v 1 14 -2
v 1 15 2
v 1 15 -2
v 3 14 4
v 3 14 -4
v 3 15 4
v 3 15 -4
v 5 9 8
v 5 9 7
v 5 12 8
v 5 12 7
v 5 14 8
v 5 14 -8
v 5 16 8
v 5 16 -8
v 6 1 8
v 6 1 7
v 6 7 8
v 6 7 7
v -6 1 8
v -6 1 7
v -6 7 8
v -6 7 7
v -6 14 8
v -6 14 6
v -6 15 6
v -6 15 3
v -6 16 8
v -6 16 3
v -5 9 8
v -5 9 7
v -5 12 8
v -5 12 7
v -5 14 6
v -5 14 -8
v -5 15 6
v -5 15 -4
v -5 16 -4
v -5 16 -8
v -3 14 4
v -3 14 -4
v -3 15 4
v -3 15 -4
v -1 14 2
v -1 14 -2
v -1 15 2
v -1 15 -2
v 2 9 8
v 2 9 7
v 2 12 8
v 2 12 7
v 2 14 3
v 2 14 -3
v 2 15 3
v 2 15 -3
v 4 14 5
v 4 14 -5
v 4 15 5
v 4 15 -5
v 7 14 5
v 7 14 -5
v 7 16 5
v 7 16 -5
v 8 0 8
v 8 0 -8
v 8 14 5
v 8 14 -5
v 8 16 8
v 8 16 5
v 8 16 -5
v 8 16 -8
v -8 0 8
v -8 16 8
v -6 1 8
v -6 7 8
v -6 14 8
v -6 16 8
v -5 9 8
v -5 12 8
v -2 9 8
v -2 12 8
v 2 9 8
v 2 12 8
v 5 9 8
v 5 12 8
v 5 14 8
v 5 16 8
v 6 1 8
v 6 7 8
v 8 0 8
v 8 16 8
v -6 1 7
v -6 7 7
v -5 9 7
v -5 12 7
v -2 9 7
v -2 12 7
v 2 9 7
v 2 12 7
v 5 9 7
v 5 12 7
v 6 1 7
v 6 7 7
v -6 14 6
v -6 15 6
v -5 14 6
v -5 15 6
v -4 14 5
v -4 15 5
v 4 14 5
v 4 15 5
v -2 14 3
v -2 15 3
v 2 14 3
v 2 15 3
v -1 14 -2
v -1 15 -2
v 1 14 -2
v 1 15 -2
v -8 15 -4
v -8 16 -4
v -5 15 -4
v -5 16 -4
v -3 14 -4
v -3 15 -4
v 3 14 -4
v 3 15 -4
v 7 14 -5
v 7 16 -5
v 8 14 -5
v 8 16 -5
v 7 14 5
v 7 16 5
v 8 14 5
v 8 16 5
v -3 14 4
v -3 15 4
v 3 14 4
v 3 15 4
v -8 15 3
v -8 16 3
v -6 15 3
v -6 16 3
v -1 14 2
v -1 15 2
v 1 14 2
v 1 15 2
v -2 14 -3
v -2 15 -3
v 2 14 -3
v 2 15 -3
v -4 14 -5
v -4 15 -5
v 4 14 -5
v 4 15 -5
v -8 0 -8
v -8 16 -8
v -5 14 -8
v -5 16 -8
v 5 14 -8
v 5 16 -8
v 8 0 -8
v 8 16 -8
v -8 0 8
v 8 0 8
v -8 0 -8
v 8 0 -8
v -6 7 8
v 6 7 8
v -6 7 7
v 6 7 7
v -5 12 8
v -2 12 8
v 2 12 8
v 5 12 8
v -5 12 7
v -2 12 7
v 2 12 7
v 5 12 7
v -6 1 8
v 6 1 8
v -6 1 7
v 6 1 7
v -5 9 8
v -2 9 8
v 2 9 8
v 5 9 8
v -5 9 7
v -2 9 7
v 2 9 7
v 5 9 7
v -6 14 8
v 5 14 8
v -6 14 6
v -5 14 6
v -4 14 5
v 4 14 5
v 7 14 5
v 8 14 5
v -3 14 4
v 3 14 4
v -2 14 3
v 2 14 3
v -1 14 2
v 1 14 2
v -1 14 -2
v 1 14 -2
v -2 14 -3
v 2 14 -3
v -3 14 -4
v 3 14 -4
v -4 14 -5
v 4 14 -5
v 7 14 -5
v 8 14 -5
v -5 14 -8
v 5 14 -8
v -6 15 6
v -5 15 6
v -4 15 5
v 4 15 5
v -3 15 4
v 3 15 4
v -8 15 3
v -6 15 3
v -2 15 3
v 2 15 3
v -1 15 2
v 1 15 2
v -1 15 -2
v 1 15 -2
v -2 15 -3
v 2 15 -3
v -8 15 -4
v -5 15 -4
v -3 15 -4
v 3 15 -4
v -4 15 -5
v 4 15 -5
v -8 16 8
v -6 16 8
v 5 16 8
v 8 16 8
v 7 16 5
v 8 16 5
v -8 16 3
v -6 16 3
v -8 16 -4
v -5 16 -4
v 7 16 -5
v 8 16 -5
v -8 16 -8
v -5 16 -8
v 5 16 -8
v 8 16 -8

# faces
f 3/1/1 2/1/1 1/1/1
f 4/1/1 2/1/1 3/1/1
f 5/1/1 3/1/1 1/1/1
f 6/1/1 3/1/1 5/1/1
f 7/1/1 2/1/1 4/1/1
f 8/1/1 2/1/1 7/1/1
f 11/1/1 10/1/1 9/1/1
f 12/1/1 10/1/1 11/1/1
f 15/1/1 14/1/1 13/1/1
f 16/1/1 14/1/1 15/1/1
f 19/1/1 18/1/1 17/1/1
f 20/1/1 18/1/1 19/1/1
f 23/1/1 22/1/1 21/1/1
f 24/1/1 22/1/1 23/1/1
f 27/1/1 26/1/1 25/1/1
f 28/1/1 26/1/1 27/1/1
f 31/1/1 30/1/1 29/1/1
f 32/1/1 30/1/1 31/1/1
f 35/1/1 34/1/1 33/1/1
f 36/1/1 34/1/1 35/1/1
f 39/1/1 38/1/1 37/1/1
f 40/1/1 38/1/1 39/1/1
f 41/1/2 42/1/2 43/1/2
f 43/1/2 42/1/2 44/1/2
f 45/1/2 46/1/2 47/1/2
f 45/1/2 47/1/2 49/1/2
f 47/1/2 48/1/2 49/1/2
f 49/1/2 48/1/2 50/1/2
f 51/1/2 52/1/2 53/1/2
f 53/1/2 52/1/2 54/1/2
f 55/1/2 56/1/2 57/1/2
f 57/1/2 56/1/2 58/1/2
f 58/1/2 56/1/2 59/1/2
f 59/1/2 56/1/2 60/1/2
f 61/1/2 62/1/2 63/1/2
f 63/1/2 62/1/2 64/1/2
f 65/1/2 66/1/2 67/1/2
f 67/1/2 66/1/2 68/1/2
f 69/1/2 70/1/2 71/1/2
f 71/1/2 70/1/2 72/1/2
f 73/1/2 74/1/2 75/1/2
f 75/1/2 74/1/2 76/1/2
f 77/1/2 78/1/2 79/1/2
f 79/1/2 78/1/2 80/1/2
f 81/1/2 82/1/2 83/1/2
f 83/1/2 82/1/2 84/1/2
f 85/1/2 86/1/2 87/1/2
f 87/1/2 86/1/2 88/1/2
f 85/1/2 87/1/2 89/1/2
f 89/1/2 87/1/2 90/1/2
f 88/1/2 86/1/2 91/1/2
f 91/1/2 86/1/2 92/1/2
f 95/1/3 94/1/3 93/1/3
f 96/1/3 94/1/3 95/1/3
f 97/1/3 94/1/3 96/1/3
f 98/1/3 94/1/3 97/1/3
f 99/1/3 97/1/3 96/1/3
f 100/1/3 97/1/3 99/1/3
f 101/1/3 99/1/3 96/1/3
f 102/1/3 97/1/3 100/1/3
f 103/1/3 101/1/3 96/1/3
f 103/1/3 102/1/3 101/1/3
f 104/1/3 97/1/3 102/1/3
f 104/1/3 102/1/3 103/1/3
f 105/1/3 103/1/3 96/1/3
f 106/1/3 97/1/3 104/1/3
f 107/1/3 97/1/3 106/1/3
f 109/1/3 95/1/3 93/1/3
f 110/1/3 108/1/3 107/1/3
f 110/1/3 105/1/3 96/1/3
f 110/1/3 107/1/3 106/1/3
f 110/1/3 106/1/3 105/1/3
f 111/1/3 109/1/3 93/1/3
f 111/1/3 110/1/3 109/1/3
f 112/1/3 108/1/3 110/1/3
f 112/1/3 110/1/3 111/1/3
f 117/3/3 116/3/3 115/3/3
f 118/3/3 116/3/3 117/3/3
f 121/3/3 120/3/3 119/3/3
f 122/3/3 120/3/3 121/3/3
f 123/2/3 114/2/3 113/2/3
f 124/2/3 114/2/3 123/2/3
f 127/1/3 126/1/3 125/1/3
f 128/1/3 126/1/3 127/1/3
f 131/1/3 130/1/3 129/1/3
f 132/1/3 130/1/3 131/1/3
f 135/1/3 134/1/3 133/1/3
f 136/1/3 134/1/3 135/1/3
f 139/1/3 138/1/3 137/1/3
f 140/1/3 138/1/3 139/1/3
f 143/1/3 142/1/3 141/1/3
f 144/1/3 142/1/3 143/1/3
f 147/1/3 146/1/3 145/1/3
f 148/1/3 146/1/3 147/1/3
f 151/1/3 150/1/3 149/1/3
f 152/1/3 150/1/3 151/1/3
f 153/1/4 154/1/4 155/1/4
f 155/1/4 154/1/4 156/1/4
f 157/1/4 158/1/4 159/1/4
f 159/1/4 158/1/4 160/1/4
f 161/1/4 162/1/4 163/1/4
f 163/1/4 162/1/4 164/1/4
f 165/1/4 166/1/4 167/1/4
f 167/1/4 166/1/4 168/1/4
f 169/1/4 170/1/4 171/1/4
f 171/1/4 170/1/4 172/1/4
f 173/1/4 174/1/4 175/1/4
f 175/1/4 174/1/4 176/1/4
f 177/1/4 178/1/4 179/1/4
f 179/1/4 178/1/4 180/1/4
f 177/1/4 179/1/4 181/1/4
f 177/1/4 181/1/4 183/1/4
f 181/1/4 182/1/4 183/1/4
f 183/1/4 182/1/4 184/1/4
f 187/1/5 186/1/5 185/1/5
f 188/1/5 186/1/5 187/1/5
f 191/1/5 190/1/5 189/1/5
f 192/1/5 190/1/5 191/1/5
f 197/1/5 194/1/5 193/1/5
f 198/1/5 194/1/5 197/1/5
f 199/1/5 196/1/5 195/1/5
f 200/1/5 196/1/5 199/1/5
f 201/1/6 202/1/6 203/1/6
f 203/1/6 202/1/6 204/1/6
f 205/1/6 206/1/6 209/1/6
f 209/1/6 206/1/6 210/1/6
f 207/1/6 208/1/6 211/1/6
f 211/1/6 208/1/6 212/1/6
f 213/1/6 214/1/6 215/1/6
f 215/1/6 214/1/6 216/1/6
f 216/1/6 214/1/6 217/1/6
f 217/1/6 214/1/6 218/1/6
f 221/1/6 222/1/6 223/1/6
f 223/1/6 222/1/6 224/1/6
f 225/1/6 226/1/6 227/1/6
f 227/1/6 226/1/6 228/1/6
f 221/1/6 223/1/6 229/1/6
f 224/1/6 222/1/6 230/1/6
f 221/1/6 229/1/6 231/1/6
f 229/1/6 230/1/6 231/1/6
f 230/1/6 222/1/6 232/1/6
f 231/1/6 230/1/6 232/1/6
f 216/1/6 217/1/6 233/1/6
f 218/1/6 214/1/6 234/1/6
f 219/1/6 220/1/6 235/1/6
f 235/1/6 220/1/6 236/1/6
f 216/1/6 233/1/6 237/1/6
f 233/1/6 234/1/6 237/1/6
f 234/1/6 214/1/6 238/1/6
f 237/1/6 234/1/6 238/1/6
f 241/1/6 242/1/6 243/1/6
f 243/1/6 242/1/6 244/1/6
f 239/1/6 240/1/6 246/1/6
f 247/1/6 248/1/6 249/1/6
f 249/1/6 248/1/6 250/1/6
f 247/1/6 249/1/6 251/1/6
f 250/1/6 248/1/6 252/1/6
f 247/1/6 251/1/6 253/1/6
f 251/1/6 252/1/6 253/1/6
f 252/1/6 248/1/6 254/1/6
f 253/1/6 252/1/6 254/1/6
f 245/1/6 246/1/6 255/1/6
f 246/1/6 240/1/6 256/1/6
f 255/1/6 246/1/6 256/1/6
f 241/1/6 243/1/6 257/1/6
f 244/1/6 242/1/6 258/1/6
f 241/1/6 257/1/6 259/1/6
f 257/1/6 258/1/6 259/1/6
f 258/1/6 242/1/6 260/1/6
f 259/1/6 258/1/6 260/1/6
f 263/1/6 264/1/6 265/1/6
f 265/1/6 264/1/6 266/1/6
f 261/1/6 262/1/6 267/1/6
f 267/1/6 262/1/6 268/1/6
f 263/1/6 265/1/6 271/1/6
f 269/1/6 270/1/6 273/1/6
f 273/1/6 270/1/6 274/1/6
f 271/1/6 272/1/6 275/1/6
f 263/1/6 271/1/6 275/1/6
f 275/1/6 272/1/6 276/1/6
