# MagicaVoxel @ Ephtracy

# group
g rail_giro

# material
mtllib rail_giro.mtl
usemtl palette

# normals
vn -1 0 0
vn 1 0 0
vn 0 0 1
vn 0 0 -1
vn 0 -1 0
vn 0 1 0

# texcoords
vt 0.373047 0.5
vt 0.876953 0.5
vt 0.978516 0.5

# verts
v -20.5 0 20.5
v -20.5 0 -20.5
v -20.5 4 4.5
v -20.5 4 3.5
v -20.5 4 -2.5
v -20.5 4 -3.5
v -20.5 5 20.5
v -20.5 5 4.5
v -20.5 5 3.5
v -20.5 5 -2.5
v -20.5 5 -3.5
v -20.5 5 -20.5
v 20.5 0 20.5
v 20.5 0 -20.5
v 20.5 5 20.5
v 20.5 5 -20.5
v -20.5 0 20.5
v -20.5 5 20.5
v -3.5 4 20.5
v -3.5 5 20.5
v -2.5 4 20.5
v -2.5 5 20.5
v 3.5 4 20.5
v 3.5 5 20.5
v 4.5 4 20.5
v 4.5 5 20.5
v 20.5 0 20.5
v 20.5 5 20.5
v -20.5 0 -20.5
v -20.5 5 -20.5
v 20.5 0 -20.5
v 20.5 5 -20.5
v -20.5 0 20.5
v 20.5 0 20.5
v -20.5 0 -20.5
v 20.5 0 -20.5
v -20.5 5 20.5
v -3.5 5 20.5
v -2.5 5 20.5
v 3.5 5 20.5
v 4.5 5 20.5
v 20.5 5 20.5
v -20.5 5 4.5
v -3.5 5 4.5
v -20.5 5 3.5
v -2.5 5 3.5
v -20.5 5 -2.5
v 3.5 5 -2.5
v -20.5 5 -3.5
v 4.5 5 -3.5
v -20.5 5 -20.5
v 20.5 5 -20.5

# faces
f 3/1/1 2/1/1 1/1/1
f 4/1/1 2/1/1 3/1/1
f 5/1/1 2/1/1 4/1/1
f 6/1/1 2/1/1 5/1/1
f 7/1/1 3/1/1 1/1/1
f 8/3/1 4/3/1 3/3/1
f 8/1/1 3/1/1 7/1/1
f 9/2/1 5/2/1 4/2/1
f 9/3/1 4/3/1 8/3/1
f 10/3/1 6/3/1 5/3/1
f 10/2/1 5/2/1 9/2/1
f 11/1/1 2/1/1 6/1/1
f 11/3/1 6/3/1 10/3/1
f 12/1/1 2/1/1 11/1/1
f 13/1/2 14/1/2 15/1/2
f 15/1/2 14/1/2 16/1/2
f 19/1/3 18/1/3 17/1/3
f 20/1/3 18/1/3 19/1/3
f 21/1/3 19/1/3 17/1/3
f 21/3/3 20/3/3 19/3/3
f 22/3/3 20/3/3 21/3/3
f 23/1/3 21/1/3 17/1/3
f 23/2/3 22/2/3 21/2/3
f 24/2/3 22/2/3 23/2/3
f 25/1/3 23/1/3 17/1/3
f 25/3/3 24/3/3 23/3/3
f 26/3/3 24/3/3 25/3/3
f 27/1/3 25/1/3 17/1/3
f 27/1/3 26/1/3 25/1/3
f 28/1/3 26/1/3 27/1/3
f 29/1/4 30/1/4 31/1/4
f 31/1/4 30/1/4 32/1/4
f 35/1/5 34/1/5 33/1/5
f 36/1/5 34/1/5 35/1/5
f 37/1/6 38/1/6 43/1/6
f 38/3/6 39/3/6 44/3/6
f 43/1/6 38/1/6 44/1/6
f 43/3/6 44/3/6 45/3/6
f 39/2/6 40/2/6 46/2/6
f 45/3/6 44/3/6 46/3/6
f 44/3/6 39/3/6 46/3/6
f 45/2/6 46/2/6 47/2/6
f 40/3/6 41/3/6 48/3/6
f 47/2/6 46/2/6 48/2/6
f 46/2/6 40/2/6 48/2/6
f 47/3/6 48/3/6 49/3/6
f 41/1/6 42/1/6 50/1/6
f 49/3/6 48/3/6 50/3/6
f 48/3/6 41/3/6 50/3/6
f 49/1/6 50/1/6 51/1/6
f 50/1/6 42/1/6 52/1/6
f 51/1/6 50/1/6 52/1/6
