# MagicaVoxel @ Ephtracy

# group
g recta_suelo_intersec

# material
mtllib recta_suelo_intersec.mtl
usemtl palette

# normals
vn -1 0 0
vn 1 0 0
vn 0 0 1
vn 0 0 -1
vn 0 -1 0
vn 0 1 0

# texcoords
vt 0.373047 0.5
vt 0.697266 0.5
vt 0.876953 0.5

# verts
v -20.5 0 20.5
v -20.5 0 -20.5
v -20.5 4 0.5
v -20.5 4 -0.5
v -20.5 5 20.5
v -20.5 5 0.5
v -20.5 5 -0.5
v -20.5 5 -20.5
v 20.5 0 20.5
v 20.5 0 -20.5
v 20.5 4 0.5
v 20.5 4 -0.5
v 20.5 5 20.5
v 20.5 5 0.5
v 20.5 5 -0.5
v 20.5 5 -20.5
v -20.5 0 20.5
v -20.5 5 20.5
v -0.5 4 20.5
v -0.5 5 20.5
v 0.5 4 20.5
v 0.5 5 20.5
v 20.5 0 20.5
v 20.5 5 20.5
v -20.5 0 -20.5
v -20.5 5 -20.5
v -0.5 4 -20.5
v -0.5 5 -20.5
v 0.5 4 -20.5
v 0.5 5 -20.5
v 20.5 0 -20.5
v 20.5 5 -20.5
v -20.5 0 20.5
v 20.5 0 20.5
v -20.5 0 -20.5
v 20.5 0 -20.5
v -20.5 5 20.5
v -0.5 5 20.5
v 0.5 5 20.5
v 20.5 5 20.5
v -0.5 5 5.5
v 0.5 5 5.5
v -0.5 5 3.5
v 0.5 5 3.5
v -1.5 5 2.5
v -0.5 5 2.5
v 0.5 5 2.5
v 1.5 5 2.5
v -2.5 5 1.5
v -1.5 5 1.5
v -0.5 5 1.5
v 0.5 5 1.5
v 1.5 5 1.5
v 2.5 5 1.5
v -20.5 5 0.5
v -4.5 5 0.5
v 4.5 5 0.5
v 20.5 5 0.5
v -20.5 5 -0.5
v -4.5 5 -0.5
v 4.5 5 -0.5
v 20.5 5 -0.5
v -2.5 5 -1.5
v -1.5 5 -1.5
v -0.5 5 -1.5
v 0.5 5 -1.5
v 1.5 5 -1.5
v 2.5 5 -1.5
v -1.5 5 -2.5
v -0.5 5 -2.5
v 0.5 5 -2.5
v 1.5 5 -2.5
v -0.5 5 -3.5
v 0.5 5 -3.5
v -0.5 5 -5.5
v 0.5 5 -5.5
v -20.5 5 -20.5
v -0.5 5 -20.5
v 0.5 5 -20.5
v 20.5 5 -20.5

# faces
f 3/1/1 2/1/1 1/1/1
f 4/1/1 2/1/1 3/1/1
f 5/1/1 3/1/1 1/1/1
f 6/3/1 4/3/1 3/3/1
f 6/1/1 3/1/1 5/1/1
f 7/1/1 2/1/1 4/1/1
f 7/3/1 4/3/1 6/3/1
f 8/1/1 2/1/1 7/1/1
f 9/1/2 10/1/2 11/1/2
f 11/1/2 10/1/2 12/1/2
f 9/1/2 11/1/2 13/1/2
f 11/3/2 12/3/2 14/3/2
f 13/1/2 11/1/2 14/1/2
f 12/1/2 10/1/2 15/1/2
f 14/3/2 12/3/2 15/3/2
f 15/1/2 10/1/2 16/1/2
f 19/1/3 18/1/3 17/1/3
f 20/1/3 18/1/3 19/1/3
f 21/1/3 19/1/3 17/1/3
f 21/3/3 20/3/3 19/3/3
f 22/3/3 20/3/3 21/3/3
f 23/1/3 21/1/3 17/1/3
f 23/1/3 22/1/3 21/1/3
f 24/1/3 22/1/3 23/1/3
f 25/1/4 26/1/4 27/1/4
f 27/1/4 26/1/4 28/1/4
f 25/1/4 27/1/4 29/1/4
f 27/3/4 28/3/4 29/3/4
f 29/3/4 28/3/4 30/3/4
f 25/1/4 29/1/4 31/1/4
f 29/1/4 30/1/4 31/1/4
f 31/1/4 30/1/4 32/1/4
f 35/1/5 34/1/5 33/1/5
f 36/1/5 34/1/5 35/1/5
f 37/1/6 38/1/6 41/1/6
f 38/3/6 39/3/6 41/3/6
f 39/1/6 40/1/6 42/1/6
f 41/3/6 39/3/6 42/3/6
f 37/1/6 41/1/6 43/1/6
f 41/1/6 42/1/6 43/1/6
f 42/1/6 40/1/6 44/1/6
f 43/1/6 42/1/6 44/1/6
f 37/1/6 43/1/6 45/1/6
f 43/3/6 44/3/6 46/3/6
f 45/1/6 43/1/6 46/1/6
f 44/1/6 40/1/6 47/1/6
f 46/3/6 44/3/6 47/3/6
f 47/1/6 40/1/6 48/1/6
f 37/1/6 45/1/6 49/1/6
f 45/3/6 46/3/6 50/3/6
f 49/1/6 45/1/6 50/1/6
f 46/2/6 47/2/6 51/2/6
f 50/3/6 46/3/6 51/3/6
f 47/3/6 48/3/6 52/3/6
f 51/2/6 47/2/6 52/2/6
f 48/1/6 40/1/6 53/1/6
f 52/3/6 48/3/6 53/3/6
f 53/1/6 40/1/6 54/1/6
f 37/1/6 49/1/6 55/1/6
f 55/1/6 49/1/6 56/1/6
f 54/1/6 40/1/6 57/1/6
f 57/1/6 40/1/6 58/1/6
f 55/3/6 56/3/6 59/3/6
f 56/1/6 49/1/6 60/1/6
f 59/3/6 56/3/6 60/3/6
f 54/1/6 57/1/6 61/1/6
f 57/3/6 58/3/6 61/3/6
f 61/3/6 58/3/6 62/3/6
f 49/3/6 50/3/6 63/3/6
f 60/1/6 49/1/6 63/1/6
f 59/1/6 60/1/6 63/1/6
f 51/2/6 52/2/6 64/2/6
f 63/3/6 50/3/6 64/3/6
f 50/2/6 51/2/6 64/2/6
f 52/2/6 53/2/6 64/2/6
f 64/2/6 53/2/6 65/2/6
f 65/2/6 53/2/6 66/2/6
f 53/3/6 54/3/6 67/3/6
f 66/2/6 53/2/6 67/2/6
f 54/1/6 61/1/6 68/1/6
f 67/3/6 54/3/6 68/3/6
f 61/1/6 62/1/6 68/1/6
f 64/3/6 65/3/6 69/3/6
f 63/1/6 64/1/6 69/1/6
f 65/2/6 66/2/6 70/2/6
f 69/3/6 65/3/6 70/3/6
f 66/3/6 67/3/6 71/3/6
f 70/2/6 66/2/6 71/2/6
f 67/1/6 68/1/6 72/1/6
f 71/3/6 67/3/6 72/3/6
f 69/1/6 70/1/6 73/1/6
f 70/3/6 71/3/6 73/3/6
f 71/1/6 72/1/6 74/1/6
f 73/3/6 71/3/6 74/3/6
f 69/1/6 73/1/6 75/1/6
f 73/1/6 74/1/6 75/1/6
f 74/1/6 72/1/6 76/1/6
f 75/1/6 74/1/6 76/1/6
f 59/1/6 63/1/6 77/1/6
f 63/1/6 69/1/6 77/1/6
f 69/1/6 75/1/6 77/1/6
f 75/3/6 76/3/6 78/3/6
f 77/1/6 75/1/6 78/1/6
f 76/1/6 72/1/6 79/1/6
f 78/3/6 76/3/6 79/3/6
f 72/1/6 68/1/6 80/1/6
f 79/1/6 72/1/6 80/1/6
f 68/1/6 62/1/6 80/1/6
