# MagicaVoxel @ Ephtracy

# group
g tpout

# material
mtllib tpout.mtl
usemtl palette

# normals
vn -1 0 0
vn 1 0 0
vn 0 0 1
vn 0 0 -1
vn 0 -1 0
vn 0 1 0

# texcoords
vt 0.373047 0.5
vt 0.876953 0.5
vt 0.939453 0.5

# verts
v -20.5 0 20.5
v -20.5 0 -20.5
v -20.5 5 20.5
v -20.5 5 -20.5
v 20.5 0 20.5
v 20.5 0 -20.5
v 20.5 5 20.5
v 20.5 5 -20.5
v -20.5 0 20.5
v -20.5 5 20.5
v 20.5 0 20.5
v 20.5 5 20.5
v -20.5 0 -20.5
v -20.5 5 -20.5
v 20.5 0 -20.5
v 20.5 5 -20.5
v -20.5 0 20.5
v 20.5 0 20.5
v -20.5 0 -20.5
v 20.5 0 -20.5
v -20.5 5 20.5
v 20.5 5 20.5
v -4.5 5 18.5
v 4.5 5 18.5
v -7.5 5 17.5
v -4.5 5 17.5
v 4.5 5 17.5
v 7.5 5 17.5
v -9.5 5 16.5
v -7.5 5 16.5
v 7.5 5 16.5
v 9.5 5 16.5
v -10.5 5 15.5
v -9.5 5 15.5
v 9.5 5 15.5
v 10.5 5 15.5
v -12.5 5 14.5
v -10.5 5 14.5
v -3.5 5 14.5
v 3.5 5 14.5
v 10.5 5 14.5
v 12.5 5 14.5
v -13.5 5 13.5
v -12.5 5 13.5
v -6.5 5 13.5
v -3.5 5 13.5
v 3.5 5 13.5
v 6.5 5 13.5
v 12.5 5 13.5
v 13.5 5 13.5
v -14.5 5 12.5
v -13.5 5 12.5
v -8.5 5 12.5
v -6.5 5 12.5
v 6.5 5 12.5
v 8.5 5 12.5
v 13.5 5 12.5
v 14.5 5 12.5
v -9.5 5 11.5
v -8.5 5 11.5
v 8.5 5 11.5
v 9.5 5 11.5
v -15.5 5 10.5
v -14.5 5 10.5
v -10.5 5 10.5
v -9.5 5 10.5
v 9.5 5 10.5
v 10.5 5 10.5
v 14.5 5 10.5
v 15.5 5 10.5
v -16.5 5 9.5
v -15.5 5 9.5
v -11.5 5 9.5
v -10.5 5 9.5
v 10.5 5 9.5
v 11.5 5 9.5
v 15.5 5 9.5
v 16.5 5 9.5
v -12.5 5 8.5
v -11.5 5 8.5
v 11.5 5 8.5
v 12.5 5 8.5
v -17.5 5 7.5
v -16.5 5 7.5
v 16.5 5 7.5
v 17.5 5 7.5
v -13.5 5 6.5
v -12.5 5 6.5
v 12.5 5 6.5
v 13.5 5 6.5
v -18.5 5 4.5
v -17.5 5 4.5
v 17.5 5 4.5
v 18.5 5 4.5
v -14.5 5 3.5
v -13.5 5 3.5
v 13.5 5 3.5
v 14.5 5 3.5
v -14.5 5 -3.5
v -13.5 5 -3.5
v 13.5 5 -3.5
v 14.5 5 -3.5
v -18.5 5 -4.5
v -17.5 5 -4.5
v 17.5 5 -4.5
v 18.5 5 -4.5
v -13.5 5 -6.5
v -12.5 5 -6.5
v 12.5 5 -6.5
v 13.5 5 -6.5
v -17.5 5 -7.5
v -16.5 5 -7.5
v 16.5 5 -7.5
v 17.5 5 -7.5
v -12.5 5 -8.5
v -11.5 5 -8.5
v 11.5 5 -8.5
v 12.5 5 -8.5
v -16.5 5 -9.5
v -15.5 5 -9.5
v -11.5 5 -9.5
v -10.5 5 -9.5
v 10.5 5 -9.5
v 11.5 5 -9.5
v 15.5 5 -9.5
v 16.5 5 -9.5
v -15.5 5 -10.5
v -14.5 5 -10.5
v -10.5 5 -10.5
v -9.5 5 -10.5
v 9.5 5 -10.5
v 10.5 5 -10.5
v 14.5 5 -10.5
v 15.5 5 -10.5
v -9.5 5 -11.5
v -8.5 5 -11.5
v 8.5 5 -11.5
v 9.5 5 -11.5
v -14.5 5 -12.5
v -13.5 5 -12.5
v -8.5 5 -12.5
v -6.5 5 -12.5
v 6.5 5 -12.5
v 8.5 5 -12.5
v 13.5 5 -12.5
v 14.5 5 -12.5
v -13.5 5 -13.5
v -12.5 5 -13.5
v -6.5 5 -13.5
v -3.5 5 -13.5
v 3.5 5 -13.5
v 6.5 5 -13.5
v 12.5 5 -13.5
v 13.5 5 -13.5
v -12.5 5 -14.5
v -10.5 5 -14.5
v -3.5 5 -14.5
v 3.5 5 -14.5
v 10.5 5 -14.5
v 12.5 5 -14.5
v -10.5 5 -15.5
v -9.5 5 -15.5
v 9.5 5 -15.5
v 10.5 5 -15.5
v -9.5 5 -16.5
v -7.5 5 -16.5
v 7.5 5 -16.5
v 9.5 5 -16.5
v -7.5 5 -17.5
v -4.5 5 -17.5
v 4.5 5 -17.5
v 7.5 5 -17.5
v -4.5 5 -18.5
v 4.5 5 -18.5
v -20.5 5 -20.5
v 20.5 5 -20.5

# faces
f 3/1/1 2/1/1 1/1/1
f 4/1/1 2/1/1 3/1/1
f 5/1/2 6/1/2 7/1/2
f 7/1/2 6/1/2 8/1/2
f 11/1/3 10/1/3 9/1/3
f 12/1/3 10/1/3 11/1/3
f 13/1/4 14/1/4 15/1/4
f 15/1/4 14/1/4 16/1/4
f 19/1/5 18/1/5 17/1/5
f 20/1/5 18/1/5 19/1/5
f 21/1/6 22/1/6 23/1/6
f 23/1/6 22/1/6 24/1/6
f 21/1/6 23/1/6 25/1/6
f 23/2/6 24/2/6 26/2/6
f 25/1/6 23/1/6 26/1/6
f 24/1/6 22/1/6 27/1/6
f 26/2/6 24/2/6 27/2/6
f 27/1/6 22/1/6 28/1/6
f 21/1/6 25/1/6 29/1/6
f 25/2/6 26/2/6 30/2/6
f 29/1/6 25/1/6 30/1/6
f 26/2/6 27/2/6 30/2/6
f 27/2/6 28/2/6 30/2/6
f 28/1/6 22/1/6 31/1/6
f 30/2/6 28/2/6 31/2/6
f 31/1/6 22/1/6 32/1/6
f 21/1/6 29/1/6 33/1/6
f 29/2/6 30/2/6 34/2/6
f 33/1/6 29/1/6 34/1/6
f 30/2/6 31/2/6 34/2/6
f 31/2/6 32/2/6 34/2/6
f 32/1/6 22/1/6 35/1/6
f 34/2/6 32/2/6 35/2/6
f 35/1/6 22/1/6 36/1/6
f 21/1/6 33/1/6 37/1/6
f 33/2/6 34/2/6 38/2/6
f 37/1/6 33/1/6 38/1/6
f 34/2/6 35/2/6 38/2/6
f 35/2/6 36/2/6 38/2/6
f 38/2/6 36/2/6 39/2/6
f 39/2/6 36/2/6 40/2/6
f 36/1/6 22/1/6 41/1/6
f 40/2/6 36/2/6 41/2/6
f 41/1/6 22/1/6 42/1/6
f 21/1/6 37/1/6 43/1/6
f 37/2/6 38/2/6 44/2/6
f 43/1/6 37/1/6 44/1/6
f 38/2/6 39/2/6 44/2/6
f 44/2/6 39/2/6 45/2/6
f 39/3/6 40/3/6 46/3/6
f 45/2/6 39/2/6 46/2/6
f 41/2/6 42/2/6 47/2/6
f 46/3/6 40/3/6 47/3/6
f 40/2/6 41/2/6 47/2/6
f 47/2/6 42/2/6 48/2/6
f 42/1/6 22/1/6 49/1/6
f 48/2/6 42/2/6 49/2/6
f 49/1/6 22/1/6 50/1/6
f 21/1/6 43/1/6 51/1/6
f 44/2/6 45/2/6 52/2/6
f 51/1/6 43/1/6 52/1/6
f 43/2/6 44/2/6 52/2/6
f 52/2/6 45/2/6 53/2/6
f 47/3/6 48/3/6 54/3/6
f 53/2/6 45/2/6 54/2/6
f 45/3/6 46/3/6 54/3/6
f 46/3/6 47/3/6 54/3/6
f 49/2/6 50/2/6 55/2/6
f 54/3/6 48/3/6 55/3/6
f 48/2/6 49/2/6 55/2/6
f 55/2/6 50/2/6 56/2/6
f 50/1/6 22/1/6 57/1/6
f 56/2/6 50/2/6 57/2/6
f 57/1/6 22/1/6 58/1/6
f 52/2/6 53/2/6 59/2/6
f 51/2/6 52/2/6 59/2/6
f 55/3/6 56/3/6 60/3/6
f 59/2/6 53/2/6 60/2/6
f 53/3/6 54/3/6 60/3/6
f 54/3/6 55/3/6 60/3/6
f 57/2/6 58/2/6 61/2/6
f 60/3/6 56/3/6 61/3/6
f 56/2/6 57/2/6 61/2/6
f 61/2/6 58/2/6 62/2/6
f 21/1/6 51/1/6 63/1/6
f 51/2/6 59/2/6 64/2/6
f 63/1/6 51/1/6 64/1/6
f 64/2/6 59/2/6 65/2/6
f 59/3/6 60/3/6 66/3/6
f 65/2/6 59/2/6 66/2/6
f 60/3/6 61/3/6 66/3/6
f 61/3/6 62/3/6 66/3/6
f 62/2/6 58/2/6 67/2/6
f 66/3/6 62/3/6 67/3/6
f 67/2/6 58/2/6 68/2/6
f 58/1/6 22/1/6 69/1/6
f 68/2/6 58/2/6 69/2/6
f 69/1/6 22/1/6 70/1/6
f 21/1/6 63/1/6 71/1/6
f 64/2/6 65/2/6 72/2/6
f 71/1/6 63/1/6 72/1/6
f 63/2/6 64/2/6 72/2/6
f 72/2/6 65/2/6 73/2/6
f 67/3/6 68/3/6 74/3/6
f 73/2/6 65/2/6 74/2/6
f 65/3/6 66/3/6 74/3/6
f 66/3/6 67/3/6 74/3/6
f 69/2/6 70/2/6 75/2/6
f 74/3/6 68/3/6 75/3/6
f 68/2/6 69/2/6 75/2/6
f 75/2/6 70/2/6 76/2/6
f 70/1/6 22/1/6 77/1/6
f 76/2/6 70/2/6 77/2/6
f 77/1/6 22/1/6 78/1/6
f 72/2/6 73/2/6 79/2/6
f 71/2/6 72/2/6 79/2/6
f 75/3/6 76/3/6 80/3/6
f 79/2/6 73/2/6 80/2/6
f 73/3/6 74/3/6 80/3/6
f 74/3/6 75/3/6 80/3/6
f 77/2/6 78/2/6 81/2/6
f 80/3/6 76/3/6 81/3/6
f 76/2/6 77/2/6 81/2/6
f 81/2/6 78/2/6 82/2/6
f 21/1/6 71/1/6 83/1/6
f 71/2/6 79/2/6 84/2/6
f 83/1/6 71/1/6 84/1/6
f 78/1/6 22/1/6 85/1/6
f 82/2/6 78/2/6 85/2/6
f 85/1/6 22/1/6 86/1/6
f 84/2/6 79/2/6 87/2/6
f 83/2/6 84/2/6 87/2/6
f 79/3/6 80/3/6 88/3/6
f 87/2/6 79/2/6 88/2/6
f 80/3/6 81/3/6 88/3/6
f 81/3/6 82/3/6 88/3/6
f 85/2/6 86/2/6 89/2/6
f 88/3/6 82/3/6 89/3/6
f 82/2/6 85/2/6 89/2/6
f 89/2/6 86/2/6 90/2/6
f 21/1/6 83/1/6 91/1/6
f 83/2/6 87/2/6 92/2/6
f 91/1/6 83/1/6 92/1/6
f 86/1/6 22/1/6 93/1/6
f 90/2/6 86/2/6 93/2/6
f 93/1/6 22/1/6 94/1/6
f 92/2/6 87/2/6 95/2/6
f 91/2/6 92/2/6 95/2/6
f 87/3/6 88/3/6 96/3/6
f 95/2/6 87/2/6 96/2/6
f 88/3/6 89/3/6 96/3/6
f 89/3/6 90/3/6 96/3/6
f 93/2/6 94/2/6 97/2/6
f 96/3/6 90/3/6 97/3/6
f 90/2/6 93/2/6 97/2/6
f 97/2/6 94/2/6 98/2/6
f 95/3/6 96/3/6 99/3/6
f 91/2/6 95/2/6 99/2/6
f 97/3/6 98/3/6 99/3/6
f 96/3/6 97/3/6 99/3/6
f 99/3/6 98/3/6 100/3/6
f 100/3/6 98/3/6 101/3/6
f 98/2/6 94/2/6 102/2/6
f 101/3/6 98/3/6 102/3/6
f 21/1/6 91/1/6 103/1/6
f 91/2/6 99/2/6 103/2/6
f 99/2/6 100/2/6 103/2/6
f 103/2/6 100/2/6 104/2/6
f 102/2/6 94/2/6 105/2/6
f 101/2/6 102/2/6 105/2/6
f 94/1/6 22/1/6 106/1/6
f 105/2/6 94/2/6 106/2/6
f 104/2/6 100/2/6 107/2/6
f 100/3/6 101/3/6 107/3/6
f 107/3/6 101/3/6 108/3/6
f 108/3/6 101/3/6 109/3/6
f 101/2/6 105/2/6 110/2/6
f 109/3/6 101/3/6 110/3/6
f 103/1/6 104/1/6 111/1/6
f 104/2/6 107/2/6 111/2/6
f 107/2/6 108/2/6 111/2/6
f 111/2/6 108/2/6 112/2/6
f 110/2/6 105/2/6 113/2/6
f 109/2/6 110/2/6 113/2/6
f 105/1/6 106/1/6 114/1/6
f 113/2/6 105/2/6 114/2/6
f 108/3/6 109/3/6 115/3/6
f 112/2/6 108/2/6 115/2/6
f 115/3/6 109/3/6 116/3/6
f 116/3/6 109/3/6 117/3/6
f 109/2/6 113/2/6 118/2/6
f 117/3/6 109/3/6 118/3/6
f 111/1/6 112/1/6 119/1/6
f 112/2/6 115/2/6 119/2/6
f 115/2/6 116/2/6 119/2/6
f 119/2/6 116/2/6 120/2/6
f 116/3/6 117/3/6 121/3/6
f 120/2/6 116/2/6 121/2/6
f 121/3/6 117/3/6 122/3/6
f 122/3/6 117/3/6 123/3/6
f 117/2/6 118/2/6 124/2/6
f 123/3/6 117/3/6 124/3/6
f 118/2/6 113/2/6 125/2/6
f 124/2/6 118/2/6 125/2/6
f 113/1/6 114/1/6 126/1/6
f 125/2/6 113/2/6 126/2/6
f 119/1/6 120/1/6 127/1/6
f 120/2/6 121/2/6 127/2/6
f 121/2/6 122/2/6 127/2/6
f 127/2/6 122/2/6 128/2/6
f 122/3/6 123/3/6 129/3/6
f 128/2/6 122/2/6 129/2/6
f 129/3/6 123/3/6 130/3/6
f 130/3/6 123/3/6 131/3/6
f 124/2/6 125/2/6 132/2/6
f 131/3/6 123/3/6 132/3/6
f 123/2/6 124/2/6 132/2/6
f 132/2/6 125/2/6 133/2/6
f 125/1/6 126/1/6 134/1/6
f 133/2/6 125/2/6 134/2/6
f 130/3/6 131/3/6 135/3/6
f 129/2/6 130/2/6 135/2/6
f 128/2/6 129/2/6 135/2/6
f 135/3/6 131/3/6 136/3/6
f 136/3/6 131/3/6 137/3/6
f 132/2/6 133/2/6 138/2/6
f 137/3/6 131/3/6 138/3/6
f 131/2/6 132/2/6 138/2/6
f 127/1/6 128/1/6 139/1/6
f 135/2/6 136/2/6 139/2/6
f 128/2/6 135/2/6 139/2/6
f 139/2/6 136/2/6 140/2/6
f 136/3/6 137/3/6 141/3/6
f 140/2/6 136/2/6 141/2/6
f 141/3/6 137/3/6 142/3/6
f 142/3/6 137/3/6 143/3/6
f 137/2/6 138/2/6 144/2/6
f 143/3/6 137/3/6 144/3/6
f 138/2/6 133/2/6 145/2/6
f 144/2/6 138/2/6 145/2/6
f 133/1/6 134/1/6 146/1/6
f 145/2/6 133/2/6 146/2/6
f 139/1/6 140/1/6 147/1/6
f 140/2/6 141/2/6 147/2/6
f 141/2/6 142/2/6 147/2/6
f 147/2/6 142/2/6 148/2/6
f 142/3/6 143/3/6 149/3/6
f 148/2/6 142/2/6 149/2/6
f 149/3/6 143/3/6 150/3/6
f 150/3/6 143/3/6 151/3/6
f 144/2/6 145/2/6 152/2/6
f 151/3/6 143/3/6 152/3/6
f 143/2/6 144/2/6 152/2/6
f 152/2/6 145/2/6 153/2/6
f 145/1/6 146/1/6 154/1/6
f 153/2/6 145/2/6 154/2/6
f 149/2/6 150/2/6 155/2/6
f 147/1/6 148/1/6 155/1/6
f 148/2/6 149/2/6 155/2/6
f 155/2/6 150/2/6 156/2/6
f 150/3/6 151/3/6 157/3/6
f 156/2/6 150/2/6 157/2/6
f 152/2/6 153/2/6 158/2/6
f 157/3/6 151/3/6 158/3/6
f 151/2/6 152/2/6 158/2/6
f 158/2/6 153/2/6 159/2/6
f 153/1/6 154/1/6 160/1/6
f 159/2/6 153/2/6 160/2/6
f 155/1/6 156/1/6 161/1/6
f 158/2/6 159/2/6 161/2/6
f 156/2/6 157/2/6 161/2/6
f 157/2/6 158/2/6 161/2/6
f 161/2/6 159/2/6 162/2/6
f 162/2/6 159/2/6 163/2/6
f 159/1/6 160/1/6 164/1/6
f 163/2/6 159/2/6 164/2/6
f 162/2/6 163/2/6 165/2/6
f 161/1/6 162/1/6 165/1/6
f 165/2/6 163/2/6 166/2/6
f 166/2/6 163/2/6 167/2/6
f 163/1/6 164/1/6 168/1/6
f 167/2/6 163/2/6 168/2/6
f 166/2/6 167/2/6 169/2/6
f 165/1/6 166/1/6 169/1/6
f 169/2/6 167/2/6 170/2/6
f 170/2/6 167/2/6 171/2/6
f 167/1/6 168/1/6 172/1/6
f 171/2/6 167/2/6 172/2/6
f 170/2/6 171/2/6 173/2/6
f 169/1/6 170/1/6 173/1/6
f 171/1/6 172/1/6 174/1/6
f 173/2/6 171/2/6 174/2/6
f 21/1/6 103/1/6 175/1/6
f 103/1/6 111/1/6 175/1/6
f 173/1/6 174/1/6 175/1/6
f 169/1/6 173/1/6 175/1/6
f 165/1/6 169/1/6 175/1/6
f 111/1/6 119/1/6 175/1/6
f 161/1/6 165/1/6 175/1/6
f 119/1/6 127/1/6 175/1/6
f 155/1/6 161/1/6 175/1/6
f 139/1/6 147/1/6 175/1/6
f 147/1/6 155/1/6 175/1/6
f 127/1/6 139/1/6 175/1/6
f 114/1/6 106/1/6 176/1/6
f 175/1/6 174/1/6 176/1/6
f 106/1/6 22/1/6 176/1/6
f 164/1/6 160/1/6 176/1/6
f 146/1/6 134/1/6 176/1/6
f 168/1/6 164/1/6 176/1/6
f 154/1/6 146/1/6 176/1/6
f 172/1/6 168/1/6 176/1/6
f 160/1/6 154/1/6 176/1/6
f 174/1/6 172/1/6 176/1/6
f 134/1/6 126/1/6 176/1/6
f 126/1/6 114/1/6 176/1/6
